<svg xmlns="http://www.w3.org/2000/svg" xmlns:xlink="http://www.w3.org/1999/xlink" version="1.1" x="0px" y="0px" viewBox="0 0 91 91" enable-background="new 0 0 91 91" xml:space="preserve"><g><path fill-rule="evenodd" clip-rule="evenodd" d="M14.118,37.993v29.483L1.552,74.285c-0.672,0.352-1.175,0.971-1.374,1.695   c-0.191,0.7-0.094,1.421,0.279,2.025c0.766,1.259,2.614,1.718,3.93,1.001l12.608-6.796L43.28,86.39   c0.623,0.344,1.348,0.525,2.101,0.525c0.75,0,1.478-0.181,2.108-0.521L73.8,72.216l12.645,6.779   c0.428,0.247,0.921,0.377,1.429,0.377c1.035,0,1.981-0.534,2.428-1.336c0.406-0.608,0.529-1.359,0.341-2.061   c-0.196-0.731-0.721-1.352-1.402-1.685l-12.555-6.814V37.069c0-1.476-0.958-2.905-2.337-3.532L48.267,19.472V5.896   c0-1.531-1.262-2.729-2.866-2.729c-1.581,0-2.864,1.224-2.864,2.729V19.45L16.502,33.515C13.81,34.97,14.118,37.993,14.118,37.993z    M68.177,66.012L49.643,76.022V54.012l18.534-9.99V66.012z M45.4,27.126l18.494,9.989L45.4,47.104l-18.512-9.988L45.4,27.126z    M22.605,44.02l18.554,9.992v22.012L22.605,66.012V44.02z" fill="#FFF"/></g></svg>