<svg xmlns="http://www.w3.org/2000/svg" xmlns:xlink="http://www.w3.org/1999/xlink" version="1.1" x="0px" y="0px" viewBox="0 0 100 100" enable-background="new 0 0 100 100" xml:space="preserve"><path fill="#FFF" d="M92.252,36.567c5.134-5.133,6.138-12.83,3.018-18.969l-9.398,9.398c-1.982,1.982-5.196,1.982-7.178,0  c-1.982-1.983-1.982-5.196,0-7.178l9.399-9.399c-6.141-3.117-13.837-2.115-18.971,3.019c-5.164,5.164-6.151,12.919-2.966,19.078  L50.498,48.173L31.702,28.848l24.566-23.02l-4.267-4.553c-0.254,0.25-0.484,0.519-0.747,0.766  c-6.843,6.413-15.681,9.127-23.792,8.149l-7.229,6.772l-2.819-2.922l-7.033,6.59l2.732,3.004L2.775,33.323l11.293,12.051  l10.164-9.524l18.427,20.162L31.935,66.734c-6.157-3.184-13.914-2.195-19.078,2.968c-4.396,4.395-5.765,10.671-4.11,16.237  l7.145-7.144c3.039-3.038,7.964-3.04,11.003-0.002c3.039,3.038,3.039,7.966,0,11.005l-7.146,7.146  c5.568,1.652,11.843,0.283,16.239-4.115c5.163-5.162,6.151-12.918,2.966-19.074l10.408-10.409l6.234,6.821l26.098,28.558  c1.988-1.07,3.895-2.428,5.646-4.074c1.507-1.416,2.81-2.959,3.902-4.585L63.944,61.998l-6.524-6.709l15.755-15.756  C79.334,42.718,87.088,41.732,92.252,36.567z"/></svg>