<?xml version="1.0" encoding="UTF-8" standalone="no"?>
<svg
   xmlns:dc="http://purl.org/dc/elements/1.1/"
   xmlns:cc="http://creativecommons.org/ns#"
   xmlns:rdf="http://www.w3.org/1999/02/22-rdf-syntax-ns#"
   xmlns:svg="http://www.w3.org/2000/svg"
   xmlns="http://www.w3.org/2000/svg"
   xmlns:xlink="http://www.w3.org/1999/xlink"
   xmlns:sodipodi="http://sodipodi.sourceforge.net/DTD/sodipodi-0.dtd"
   xmlns:inkscape="http://www.inkscape.org/namespaces/inkscape"
   version="1.1"
   viewBox="0 0 315 265"
   stroke-miterlimit="10"
   id="svg4050"
   sodipodi:docname="Joystick.svg"
   inkscape:version="0.92.2 (unknown)"
   width="315"
   height="265"
   style="fill:none;stroke:none;stroke-linecap:square;stroke-miterlimit:10">
  <metadata
     id="metadata4056">
    <rdf:RDF>
      <cc:Work
         rdf:about="">
        <dc:format>image/svg+xml</dc:format>
        <dc:type
           rdf:resource="http://purl.org/dc/dcmitype/StillImage" />
        <dc:title></dc:title>
      </cc:Work>
    </rdf:RDF>
  </metadata>
  <defs
     id="defs4054">
    <clipPath
       clipPathUnits="userSpaceOnUse"
       id="clipPath4204">
      <use
         x="0"
         y="0"
         xlink:href="#g4200"
         id="use4206"
         width="100%"
         height="100%" />
    </clipPath>
    <radialGradient
       inkscape:collect="always"
       xlink:href="#p.1"
       id="radialGradient4236"
       gradientUnits="userSpaceOnUse"
       gradientTransform="scale(8.8792133)"
       cx="20.662254"
       cy="15.3752"
       fx="20.662254"
       fy="15.3752"
       r="8.8792133"
       spreadMethod="pad" />
    <radialGradient
       inkscape:collect="always"
       xlink:href="#p.2"
       id="radialGradient4238"
       gradientUnits="userSpaceOnUse"
       gradientTransform="scale(7.6373456)"
       cx="24.022034"
       cy="17.875278"
       fx="24.022034"
       fy="17.875278"
       r="7.6373458"
       spreadMethod="pad" />
  </defs>
  <sodipodi:namedview
     pagecolor="#ffffff"
     bordercolor="#666666"
     borderopacity="1"
     objecttolerance="10"
     gridtolerance="10"
     guidetolerance="10"
     inkscape:pageopacity="0"
     inkscape:pageshadow="2"
     inkscape:window-width="1422"
     inkscape:window-height="892"
     id="namedview4052"
     showgrid="false"
     inkscape:zoom="1.111729"
     inkscape:cx="245.41933"
     inkscape:cy="84.043115"
     inkscape:window-x="114"
     inkscape:window-y="48"
     inkscape:window-maximized="0"
     inkscape:current-layer="g4048" />
  <clipPath
     id="p.0">
    <path
       d="M 0,0 H 720 V 540 H 0 Z"
       id="path3969"
       inkscape:connector-curvature="0"
       style="clip-rule:nonzero" />
  </clipPath>
  <g
     clip-path="url(#p.0)"
     id="g4048"
     transform="translate(-31.80212,-276.27208)">
    <path
       d="M 0,0 H 720 V 540 H 0 Z"
       id="path3972"
       inkscape:connector-curvature="0"
       style="fill:#000000;fill-opacity:0;fill-rule:evenodd" />
    <defs
       id="defs3979">
      <radialGradient
         id="p.1"
         gradientUnits="userSpaceOnUse"
         gradientTransform="scale(8.8792133)"
         spreadMethod="pad"
         cx="20.662254"
         cy="15.3752"
         fx="20.662254"
         fy="15.3752"
         r="8.8792133">
        <stop
           offset="0.0"
           stop-color="#dddddd"
           id="stop3974" />
        <stop
           offset="1.0"
           stop-color="#919191"
           id="stop3976" />
      </radialGradient>
    </defs>
    <defs
       id="defs3990">
      <radialGradient
         id="p.2"
         gradientUnits="userSpaceOnUse"
         gradientTransform="scale(7.6373456)"
         spreadMethod="pad"
         cx="24.022034"
         cy="17.875278"
         fx="24.022034"
         fy="17.875278"
         r="7.6373458">
        <stop
           offset="0.0"
           stop-color="#696969"
           id="stop3985" />
        <stop
           offset="1.0"
           stop-color="#1d1d1d"
           id="stop3987" />
      </radialGradient>
    </defs>
    <g
       id="g4202"
       clip-path="url(#clipPath4204)"
       transform="translate(6.2964986,270.74944)">
      <g
         inkscape:label="Clip"
         id="g4200">
        <path
           inkscape:connector-curvature="0"
           style="fill:url(#radialGradient4236);fill-rule:evenodd"
           id="path3981"
           d="m 127.46457,81.02362 h 112 v 110.99213 h -112 z" />
        <path
           style="fill-rule:evenodd;stroke:#000000;stroke-width:1;stroke-linecap:butt;stroke-linejoin:round"
           inkscape:connector-curvature="0"
           id="path3983"
           d="m 127.46457,81.02362 h 112 v 110.99213 h -112 z" />
        <path
           inkscape:connector-curvature="0"
           style="fill:url(#radialGradient4238);fill-rule:evenodd"
           id="path3992"
           d="m 142.47244,136.51968 v 0 c 0,-22.91764 18.3528,-41.496063 40.99213,-41.496063 v 0 c 10.87178,0 21.29829,4.371895 28.98581,12.153913 7.68751,7.78202 12.00631,18.33671 12.00631,29.34215 v 0 c 0,22.91765 -18.3528,41.49606 -40.99212,41.49606 v 0 c -22.63933,0 -40.99213,-18.57841 -40.99213,-41.49606 z" />
        <path
           style="fill-rule:evenodd;stroke:#000000;stroke-width:1;stroke-linecap:butt;stroke-linejoin:round"
           inkscape:connector-curvature="0"
           id="path3994"
           d="m 142.47244,136.51968 v 0 c 0,-22.91764 18.3528,-41.496063 40.99213,-41.496063 v 0 c 10.87178,0 21.29829,4.371895 28.98581,12.153913 7.68751,7.78202 12.00631,18.33671 12.00631,29.34215 v 0 c 0,22.91765 -18.3528,41.49606 -40.99212,41.49606 v 0 c -22.63933,0 -40.99213,-18.57841 -40.99213,-41.49606 z" />
        <path
           style="fill:#000000;fill-opacity:0;fill-rule:evenodd"
           inkscape:connector-curvature="0"
           id="path3996"
           d="m 156.46457,191.952 1.00787,37.00787" />
        <path
           style="fill-rule:evenodd;stroke:#ff0000;stroke-width:3;stroke-linecap:butt;stroke-linejoin:round"
           inkscape:connector-curvature="0"
           id="path3998"
           d="m 156.46457,191.952 1.00787,37.00787" />
        <path
           style="fill:#000000;fill-opacity:0;fill-rule:evenodd"
           inkscape:connector-curvature="0"
           id="path4000"
           d="m 169.46457,191.952 1.00787,37.00787" />
        <path
           style="fill-rule:evenodd;stroke:#ff9900;stroke-width:3;stroke-linecap:butt;stroke-linejoin:round"
           inkscape:connector-curvature="0"
           id="path4002"
           d="m 169.46457,191.952 1.00787,37.00787" />
        <path
           style="fill:#000000;fill-opacity:0;fill-rule:evenodd"
           inkscape:connector-curvature="0"
           id="path4004"
           d="m 182.46457,191.952 1.00787,37.00787" />
        <path
           style="fill-rule:evenodd;stroke:#ffff00;stroke-width:3;stroke-linecap:butt;stroke-linejoin:round"
           inkscape:connector-curvature="0"
           id="path4006"
           d="m 182.46457,191.952 1.00787,37.00787" />
        <path
           style="fill:#000000;fill-opacity:0;fill-rule:evenodd"
           inkscape:connector-curvature="0"
           id="path4008"
           d="m 195.46457,191.952 1.00787,37.00787" />
        <path
           style="fill-rule:evenodd;stroke:#38761d;stroke-width:3;stroke-linecap:butt;stroke-linejoin:round"
           inkscape:connector-curvature="0"
           id="path4010"
           d="m 195.46457,191.952 1.00787,37.00787" />
        <path
           style="fill:#000000;fill-opacity:0;fill-rule:evenodd"
           inkscape:connector-curvature="0"
           id="path4012"
           d="m 208.46457,191.952 1.00787,37.00787" />
        <path
           style="fill-rule:evenodd;stroke:#000000;stroke-width:3;stroke-linecap:butt;stroke-linejoin:round"
           inkscape:connector-curvature="0"
           id="path4014"
           d="m 208.46457,191.952 1.00787,37.00787" />
        <path
           style="fill:#cfe2f3;fill-rule:evenodd"
           inkscape:connector-curvature="0"
           id="path4016"
           d="m 164.96063,50.535435 18.50394,-18.503937 18.50393,18.503937 h -9.25196 V 95.023621 H 174.2126 V 50.535435 Z" />
        <path
           style="fill-rule:evenodd;stroke:#000000;stroke-width:1;stroke-linecap:butt;stroke-linejoin:round"
           inkscape:connector-curvature="0"
           id="path4018"
           d="m 164.96063,50.535435 18.50394,-18.503937 18.50393,18.503937 h -9.25196 V 95.023621 H 174.2126 V 50.535435 Z" />
        <path
           style="fill:#cfe2f3;fill-rule:evenodd"
           inkscape:connector-curvature="0"
           id="path4020"
           d="M 97.98425,155.02362 79.480313,136.51968 97.98425,118.01575 v 9.25196 h 44.48819 v 18.50394 H 97.98425 Z" />
        <path
           style="fill-rule:evenodd;stroke:#000000;stroke-width:1;stroke-linecap:butt;stroke-linejoin:round"
           inkscape:connector-curvature="0"
           id="path4022"
           d="M 97.98425,155.02362 79.480313,136.51968 97.98425,118.01575 v 9.25196 h 44.48819 v 18.50394 H 97.98425 Z" />
        <path
           style="fill:#cfe2f3;fill-rule:evenodd"
           inkscape:connector-curvature="0"
           id="path4024"
           d="m 268.9449,118.01575 18.50394,18.50394 -18.50394,18.50393 v -9.25196 h -44.48819 v -18.50394 h 44.48819 z" />
        <path
           style="fill-rule:evenodd;stroke:#000000;stroke-width:1;stroke-linecap:butt;stroke-linejoin:round"
           inkscape:connector-curvature="0"
           id="path4026"
           d="m 268.9449,118.01575 18.50394,18.50394 -18.50394,18.50393 v -9.25196 h -44.48819 v -18.50394 h 44.48819 z" />
        <path
           style="fill:#cfe2f3;fill-rule:evenodd"
           inkscape:connector-curvature="0"
           id="path4028"
           d="m 164.46457,222.50394 18.50394,18.50394 18.50393,-18.50394 h -9.25196 v -44.48819 h -18.50394 v 44.48819 z" />
        <path
           style="fill-rule:evenodd;stroke:#000000;stroke-width:1;stroke-linecap:butt;stroke-linejoin:round"
           inkscape:connector-curvature="0"
           id="path4030"
           d="m 164.46457,222.50394 18.50394,18.50394 18.50393,-18.50394 h -9.25196 v -44.48819 h -18.50394 v 44.48819 z" />
        <path
           style="fill:#000000;fill-opacity:0;fill-rule:evenodd"
           inkscape:connector-curvature="0"
           id="path4032"
           d="m 130.22835,242.89764 h 105.48032 v 32.03149 H 130.22835 Z" />
        <path
           style="fill:#000000;fill-rule:nonzero"
           inkscape:connector-curvature="0"
           id="path4034"
           d="m 141.18524,265.83337 v -13.59374 h 2.60937 v 4.89061 q 1.20313,-1.37498 2.85938,-1.37498 1.79687,0 2.96875,1.31248 1.1875,1.29688 1.1875,3.73438 0,2.53125 -1.20313,3.89062 -1.20312,1.35938 -2.92187,1.35938 -0.84375,0 -1.67188,-0.42188 -0.8125,-0.42187 -1.40625,-1.25 v 1.45313 z m 2.59375,-5.14063 q 0,1.53125 0.48437,2.26563 0.67188,1.03125 1.79688,1.03125 0.85937,0 1.46875,-0.73438 0.60937,-0.73437 0.60937,-2.32812 0,-1.6875 -0.60937,-2.42188 -0.60938,-0.75 -1.57813,-0.75 -0.9375,0 -1.5625,0.73438 -0.60937,0.71875 -0.60937,2.20312 z m 10.86473,-1.70312 -2.35937,-0.4375 q 0.39062,-1.42188 1.35937,-2.10938 0.98438,-0.68748 2.90625,-0.68748 1.73438,0 2.59375,0.42186 0.85938,0.40625 1.20313,1.04687 0.34375,0.625 0.34375,2.32813 l -0.0312,3.04687 q 0,1.29688 0.125,1.92188 0.125,0.60937 0.46875,1.3125 h -2.57813 q -0.0937,-0.26563 -0.25,-0.76563 -0.0625,-0.23437 -0.0937,-0.3125 -0.65625,0.65625 -1.42187,0.98438 -0.76563,0.3125 -1.625,0.3125 -1.51563,0 -2.40625,-0.8125 -0.875,-0.82813 -0.875,-2.09375 0,-0.84375 0.39062,-1.48438 0.40625,-0.65625 1.125,-1 0.71875,-0.35937 2.07813,-0.625 1.82812,-0.32812 2.53125,-0.625 v -0.26562 q 0,-0.75 -0.375,-1.0625 -0.35938,-0.32813 -1.39063,-0.32813 -0.70312,0 -1.09375,0.28125 -0.39062,0.26563 -0.625,0.95313 z m 3.48438,2.10937 q -0.5,0.17188 -1.59375,0.40625 -1.07813,0.23438 -1.40625,0.45313 -0.51563,0.35937 -0.51563,0.92187 0,0.54688 0.40625,0.95313 0.40625,0.39062 1.04688,0.39062 0.70312,0 1.34375,-0.46875 0.46875,-0.35937 0.625,-0.85937 0.0937,-0.34375 0.0937,-1.28125 z m 13.53196,-2.20312 -2.5625,0.46875 q -0.14062,-0.78125 -0.59375,-1.17188 -0.45312,-0.39062 -1.1875,-0.39062 -0.98437,0 -1.5625,0.67187 -0.57812,0.67188 -0.57812,2.25 0,1.76563 0.57812,2.48438 0.59375,0.71875 1.59375,0.71875 0.75,0 1.21875,-0.42188 0.46875,-0.42187 0.67188,-1.45312 l 2.54687,0.4375 q -0.39062,1.76562 -1.53125,2.67187 -1.125,0.89063 -3.03125,0.89063 -2.15625,0 -3.45312,-1.35938 -1.28125,-1.35937 -1.28125,-3.78125 0,-2.4375 1.29687,-3.79687 1.29688,-1.35936 3.48438,-1.35936 1.79687,0 2.85937,0.78124 1.0625,0.76562 1.53125,2.35937 z m 1.68822,6.9375 v -13.59374 h 2.60938 v 7.20311 l 3.0625,-3.46873 h 3.20312 l -3.375,3.60936 3.60938,6.25 h -2.79688 l -2.48437,-4.42188 -1.21875,1.26563 v 3.15625 z m 12.31322,0 -3.125,-9.85936 h 2.53125 l 1.85937,6.46873 1.6875,-6.46873 h 2.51563 l 1.64062,6.46873 1.89063,-6.46873 h 2.5625 l -3.15625,9.85936 h -2.51563 l -1.6875,-6.34375 -1.67187,6.34375 z m 14.6208,-6.84375 -2.35937,-0.4375 q 0.39062,-1.42188 1.35937,-2.10938 0.98438,-0.68748 2.90625,-0.68748 1.73438,0 2.59375,0.42186 0.85938,0.40625 1.20313,1.04687 0.34375,0.625 0.34375,2.32813 l -0.0312,3.04687 q 0,1.29688 0.125,1.92188 0.125,0.60937 0.46875,1.3125 h -2.57813 q -0.0937,-0.26563 -0.25,-0.76563 -0.0625,-0.23437 -0.0937,-0.3125 -0.65625,0.65625 -1.42187,0.98438 -0.76563,0.3125 -1.625,0.3125 -1.51563,0 -2.40625,-0.8125 -0.875,-0.82813 -0.875,-2.09375 0,-0.84375 0.39062,-1.48438 0.40625,-0.65625 1.125,-1 0.71875,-0.35937 2.07813,-0.625 1.82812,-0.32812 2.53125,-0.625 v -0.26562 q 0,-0.75 -0.375,-1.0625 -0.35938,-0.32813 -1.39063,-0.32813 -0.70312,0 -1.09375,0.28125 -0.39062,0.26563 -0.625,0.95313 z m 3.48438,2.10937 q -0.5,0.17188 -1.59375,0.40625 -1.07813,0.23438 -1.40625,0.45313 -0.51563,0.35937 -0.51563,0.92187 0,0.54688 0.40625,0.95313 0.40625,0.39062 1.04688,0.39062 0.70312,0 1.34375,-0.46875 0.46875,-0.35937 0.625,-0.85937 0.0937,-0.34375 0.0937,-1.28125 z m 7.43821,4.73438 h -2.60937 v -9.85936 h 2.42187 v 1.40623 q 0.625,-0.98437 1.10938,-1.29687 0.5,-0.32811 1.14062,-0.32811 0.89063,0 1.71875,0.49998 l -0.8125,2.26563 q -0.65625,-0.42188 -1.21875,-0.42188 -0.54687,0 -0.9375,0.29688 -0.375,0.29687 -0.59375,1.09375 -0.21875,0.78125 -0.21875,3.29687 z m 13.80715,0 h -2.42188 v -1.45313 q -0.60937,0.84375 -1.4375,1.26563 -0.8125,0.40625 -1.64062,0.40625 -1.70313,0 -2.92188,-1.35938 -1.20312,-1.375 -1.20312,-3.82812 0,-2.5 1.17187,-3.79688 1.1875,-1.31248 2.98438,-1.31248 1.65625,0 2.85937,1.37498 v -4.8906 h 2.60938 z m -6.96875,-5.14063 q 0,1.57813 0.4375,2.28125 0.64062,1.01563 1.76562,1.01563 0.90625,0 1.53125,-0.76563 0.625,-0.76562 0.625,-2.28125 0,-1.70312 -0.60937,-2.4375 -0.60938,-0.75 -1.5625,-0.75 -0.9375,0 -1.5625,0.73438 -0.625,0.73437 -0.625,2.20312 z" />
        <path
           style="fill:#000000;fill-opacity:0;fill-rule:evenodd"
           inkscape:connector-curvature="0"
           id="path4036"
           d="m 261.44882,120.50394 h 105.48032 v 32.03149 H 261.44882 Z" />
        <path
           style="fill:#000000;fill-rule:nonzero"
           inkscape:connector-curvature="0"
           id="path4038"
           d="m 297.32425,143.43968 h -2.60938 v -9.85938 h 2.42188 v 1.40625 q 0.625,-0.98437 1.10937,-1.29687 0.5,-0.32813 1.14063,-0.32813 0.89062,0 1.71875,0.5 l -0.8125,2.26563 q -0.65625,-0.42188 -1.21875,-0.42188 -0.54688,0 -0.9375,0.29688 -0.375,0.29687 -0.59375,1.09375 -0.21875,0.78125 -0.21875,3.29687 z m 4.76025,-11.1875 v -2.40625 h 2.60938 v 2.40625 z m 0,11.1875 v -9.85938 h 2.60938 v 9.85938 z m 4.94895,0.65625 2.96875,0.35937 q 0.0781,0.51563 0.34375,0.70313 0.375,0.28125 1.17187,0.28125 1.03125,0 1.53125,-0.29688 0.34375,-0.20312 0.51563,-0.65625 0.125,-0.32812 0.125,-1.20312 v -1.4375 q -1.17188,1.59375 -2.95313,1.59375 -1.98437,0 -3.14062,-1.67188 -0.90625,-1.32812 -0.90625,-3.3125 0,-2.46875 1.1875,-3.78125 1.1875,-1.3125 2.96875,-1.3125 1.82812,0 3.01562,1.60938 v -1.39063 h 2.4375 v 8.84375 q 0,1.75 -0.29687,2.60938 -0.28125,0.85937 -0.79688,1.34375 -0.51562,0.5 -1.39062,0.78125 -0.85938,0.28125 -2.1875,0.28125 -2.51563,0 -3.5625,-0.85938 -1.04688,-0.85937 -1.04688,-2.17187 0,-0.14063 0.0156,-0.3125 z m 2.32812,-5.78125 q 0,1.5625 0.60938,2.29687 0.60937,0.71875 1.5,0.71875 0.95312,0 1.60937,-0.73437 0.65625,-0.75 0.65625,-2.21875 0,-1.53125 -0.64062,-2.26563 -0.625,-0.75 -1.57813,-0.75 -0.9375,0 -1.54687,0.73438 -0.60938,0.71875 -0.60938,2.21875 z m 11.91159,-8.46875 v 5 q 1.25,-1.48438 3.01563,-1.48438 0.89062,0 1.60937,0.34375 0.73438,0.32813 1.09375,0.84375 0.375,0.51563 0.5,1.15625 0.14063,0.625 0.14063,1.95313 v 5.78125 h -2.60938 v -5.20313 q 0,-1.54687 -0.15625,-1.96875 -0.14062,-0.42187 -0.51562,-0.65625 -0.375,-0.25 -0.9375,-0.25 -0.65625,0 -1.17188,0.3125 -0.5,0.3125 -0.73437,0.95313 -0.23438,0.64062 -0.23438,1.875 v 4.9375 h -2.60937 v -13.59375 z m 13.30225,3.73437 v 2.07813 h -1.78125 v 3.98437 q 0,1.20313 0.0469,1.40625 0.0625,0.1875 0.23438,0.32813 0.1875,0.125 0.45312,0.125 0.35938,0 1.04688,-0.25 l 0.21875,2.01562 q -0.90625,0.39063 -2.0625,0.39063 -0.70313,0 -1.26563,-0.23438 -0.5625,-0.23437 -0.82812,-0.60937 -0.26563,-0.375 -0.375,-1.01563 -0.0781,-0.45312 -0.0781,-1.84375 v -4.29687 h -1.20312 v -2.07813 h 1.20312 v -1.95312 l 2.60938,-1.51563 v 3.46875 z" />
        <path
           style="fill:#000000;fill-opacity:0;fill-rule:evenodd"
           inkscape:connector-curvature="0"
           id="path4040"
           d="m 0,120.50394 h 105.48032 v 32.03149 H 0 Z" />
        <path
           style="fill:#000000;fill-rule:nonzero"
           inkscape:connector-curvature="0"
           id="path4042"
           d="m 40.107346,143.43968 v -13.59375 h 2.609375 v 13.59375 z m 10.886429,-3.14063 2.609375,0.4375 q -0.5,1.4375 -1.59375,2.1875 -1.078125,0.73438 -2.703125,0.73438 -2.5625,0 -3.796875,-1.67188 -0.96875,-1.34375 -0.96875,-3.40625 0,-2.4375 1.265625,-3.82812 1.28125,-1.39063 3.25,-1.39063 2.1875,0 3.453125,1.45313 1.28125,1.45312 1.234375,4.45312 h -6.53125 q 0.01563,1.15625 0.625,1.8125 0.609375,0.64063 1.5,0.64063 0.609375,0 1.03125,-0.32813 0.421875,-0.34375 0.625,-1.09375 z m 0.15625,-2.625 q -0.03125,-1.14062 -0.59375,-1.71875 -0.546875,-0.59375 -1.34375,-0.59375 -0.859375,0 -1.40625,0.625 -0.5625,0.60938 -0.546875,1.6875 z m 3.375717,-4.09375 h 1.453125 v -0.73437 q 0,-1.25 0.265625,-1.85938 0.265625,-0.60937 0.96875,-0.98437 0.71875,-0.39063 1.796875,-0.39063 1.109375,0 2.1875,0.32813 l -0.359375,1.8125 q -0.625,-0.14063 -1.203125,-0.14063 -0.5625,0 -0.8125,0.26563 -0.234375,0.26562 -0.234375,1.01562 v 0.6875 h 1.9375 v 2.0625 h -1.9375 v 7.79688 h -2.609375 v -7.79688 h -1.453125 z m 11.868927,0 v 2.07813 h -1.78125 v 3.98437 q 0,1.20313 0.04687,1.40625 0.0625,0.1875 0.234375,0.32813 0.1875,0.125 0.453125,0.125 0.359375,0 1.046875,-0.25 l 0.21875,2.01562 q -0.90625,0.39063 -2.0625,0.39063 -0.703125,0 -1.265625,-0.23438 -0.5625,-0.23437 -0.828125,-0.60937 -0.265625,-0.375 -0.375,-1.01563 -0.07813,-0.45312 -0.07813,-1.84375 v -4.29687 h -1.203125 v -2.07813 h 1.203125 v -1.95312 l 2.609375,-1.51563 v 3.46875 z" />
        <path
           style="fill:#000000;fill-opacity:0;fill-rule:evenodd"
           inkscape:connector-curvature="0"
           id="path4044"
           d="M 130.72441,0 H 236.20473 V 32.031498 H 130.72441 Z" />
        <path
           style="fill:#000000;fill-rule:nonzero"
           inkscape:connector-curvature="0"
           id="path4046"
           d="m 149.47716,13.07637 h 1.45312 v -0.734375 q 0,-1.25 0.26563,-1.859375 0.26562,-0.609375 0.96875,-0.984375 0.71875,-0.390625 1.79687,-0.390625 1.10938,0 2.1875,0.328125 l -0.35937,1.8125 q -0.625,-0.140625 -1.20313,-0.140625 -0.5625,0 -0.8125,0.265625 -0.23437,0.265625 -0.23437,1.015625 v 0.6875 h 1.9375 v 2.0625 h -1.9375 v 7.796875 h -2.60938 V 15.13887 h -1.45312 z m 6.75955,4.796875 q 0,-1.296875 0.64063,-2.515625 0.64062,-1.21875 1.8125,-1.859375 1.17187,-0.640625 2.60937,-0.640625 2.25,0 3.67188,1.453125 1.42187,1.453125 1.42187,3.671875 0,2.234375 -1.4375,3.703125 -1.4375,1.46875 -3.625,1.46875 -1.35937,0 -2.59375,-0.609375 -1.21875,-0.609375 -1.85937,-1.796875 -0.64063,-1.1875 -0.64063,-2.875 z m 2.67188,0.140625 q 0,1.46875 0.6875,2.25 0.70312,0.765625 1.71875,0.765625 1.01562,0 1.70312,-0.765625 0.70313,-0.78125 0.70313,-2.265625 0,-1.453125 -0.70313,-2.234375 -0.6875,-0.78125 -1.70312,-0.78125 -1.01563,0 -1.71875,0.78125 -0.6875,0.78125 -0.6875,2.25 z m 11.81785,4.921875 h -2.60937 V 13.07637 h 2.42187 v 1.40625 q 0.625,-0.984375 1.10938,-1.296875 0.5,-0.328125 1.14062,-0.328125 0.89063,0 1.71875,0.5 l -0.8125,2.265625 q -0.65625,-0.421875 -1.21875,-0.421875 -0.54687,0 -0.9375,0.296875 -0.375,0.296875 -0.59375,1.09375 -0.21875,0.78125 -0.21875,3.296875 z m 6.60402,0 -3.125,-9.859375 h 2.53125 l 1.85938,6.46875 1.6875,-6.46875 h 2.51562 l 1.64063,6.46875 1.89062,-6.46875 h 2.5625 l -3.15625,9.859375 h -2.51562 l -1.6875,-6.34375 -1.67188,6.34375 z m 14.62081,-6.84375 -2.35938,-0.4375 q 0.39063,-1.421875 1.35938,-2.109375 0.98437,-0.6875 2.90625,-0.6875 1.73437,0 2.59375,0.421875 0.85937,0.40625 1.20312,1.046875 0.34375,0.625 0.34375,2.328125 l -0.0312,3.046875 q 0,1.296875 0.125,1.921875 0.125,0.609375 0.46875,1.3125 h -2.57812 q -0.0937,-0.265625 -0.25,-0.765625 -0.0625,-0.234375 -0.0937,-0.3125 -0.65625,0.65625 -1.42188,0.984375 -0.76562,0.3125 -1.625,0.3125 -1.51562,0 -2.40625,-0.8125 -0.875,-0.828125 -0.875,-2.09375 0,-0.84375 0.39063,-1.484375 0.40625,-0.65625 1.125,-1 0.71875,-0.359375 2.07812,-0.625 1.82813,-0.328125 2.53125,-0.625 v -0.265625 q 0,-0.75 -0.375,-1.0625 -0.35937,-0.328125 -1.39062,-0.328125 -0.70313,0 -1.09375,0.28125 -0.39063,0.265625 -0.625,0.953125 z m 3.48437,2.109375 q -0.5,0.171875 -1.59375,0.40625 -1.07812,0.234375 -1.40625,0.453125 -0.51562,0.359375 -0.51562,0.921875 0,0.546875 0.40625,0.953125 0.40625,0.390625 1.04687,0.390625 0.70313,0 1.34375,-0.46875 0.46875,-0.359375 0.625,-0.859375 0.0937,-0.34375 0.0937,-1.28125 z m 7.43822,4.734375 h -2.60938 V 13.07637 h 2.42188 v 1.40625 q 0.625,-0.984375 1.10937,-1.296875 0.5,-0.328125 1.14063,-0.328125 0.89062,0 1.71875,0.5 l -0.8125,2.265625 q -0.65625,-0.421875 -1.21875,-0.421875 -0.54688,0 -0.9375,0.296875 -0.375,0.296875 -0.59375,1.09375 -0.21875,0.78125 -0.21875,3.296875 z m 13.80714,0 h -2.42187 V 21.48262 q -0.60938,0.84375 -1.4375,1.265625 -0.8125,0.40625 -1.64063,0.40625 -1.70312,0 -2.92187,-1.359375 -1.20313,-1.375 -1.20313,-3.828125 0,-2.5 1.17188,-3.796875 1.1875,-1.3125 2.98437,-1.3125 1.65625,0 2.85938,1.375 V 9.341995 h 2.60937 z m -6.96875,-5.140625 q 0,1.578125 0.4375,2.28125 0.64063,1.015625 1.76563,1.015625 0.90625,0 1.53125,-0.765625 0.625,-0.765625 0.625,-2.28125 0,-1.703125 -0.60938,-2.4375 -0.60937,-0.75 -1.5625,-0.75 -0.9375,0 -1.5625,0.734375 -0.625,0.734375 -0.625,2.203125 z" />
      </g>
    </g>
  </g>
</svg>
